<?xml version="1.0" standalone="no"?><!DOCTYPE svg PUBLIC "-//W3C//DTD SVG 1.1//EN" "http://www.w3.org/Graphics/SVG/1.1/DTD/svg11.dtd"><svg t="1675066367177" viewBox="0 0 1024 1024" version="1.1" xmlns="http://www.w3.org/2000/svg" p-id="3501" xmlns:xlink="http://www.w3.org/1999/xlink"><path d="M827.072 865.856H196.928a25.6 25.6 0 1 0 0 51.2h630.144a25.6 25.6 0 1 0 0-51.2zM992.064 493.12c1.28-1.664 2.752-3.072 3.904-4.8 2.112-3.2 3.776-6.656 5.504-10.112 0.832-1.728 1.92-3.264 2.688-5.056 1.6-3.776 2.688-7.872 3.712-11.904 0.448-1.664 1.152-3.2 1.472-4.864a89.728 89.728 0 0 0-87.808-107.584 89.728 89.728 0 0 0-89.28 96.64l-135.936 57.6-122.752-241.728 0.128-0.128c3.84-3.648 7.232-7.68 10.368-11.968 0.448-0.64 1.024-1.152 1.472-1.728 2.752-4.032 5.12-8.384 7.232-12.8 0.448-0.96 1.088-1.792 1.536-2.752 1.92-4.544 3.328-9.344 4.544-14.208 0.256-1.024 0.704-1.92 0.896-2.88A89.728 89.728 0 0 0 512 107.008a89.728 89.728 0 0 0-87.744 107.776c0.192 1.024 0.64 1.92 0.896 2.88 1.152 4.864 2.56 9.664 4.544 14.208 0.448 0.96 1.088 1.792 1.536 2.752 2.112 4.48 4.416 8.832 7.232 12.8 0.448 0.64 1.024 1.152 1.472 1.728 3.136 4.288 6.592 8.32 10.368 11.968l0.128 0.128L327.68 503.04l-136-57.6A89.728 89.728 0 0 0 102.4 348.864 89.728 89.728 0 0 0 14.592 456.448c0.384 1.792 1.152 3.456 1.6 5.248 1.024 3.904 2.048 7.808 3.584 11.52 0.832 1.984 2.048 3.712 3.008 5.632 1.664 3.2 3.2 6.528 5.184 9.536 1.28 1.856 2.88 3.456 4.288 5.248 2.176 2.688 4.16 5.568 6.592 8 1.664 1.664 3.584 2.944 5.376 4.48 2.56 2.176 4.992 4.544 7.808 6.4 2.048 1.408 4.288 2.368 6.4 3.584 2.816 1.6 5.632 3.392 8.64 4.736 2.368 1.024 4.992 1.6 7.424 2.432 3.072 1.024 6.016 2.176 9.216 2.88 2.688 0.576 5.568 0.64 8.384 0.96 2.944 0.32 5.888 0.96 8.896 1.024l71.104 260.672a25.664 25.664 0 0 0 24.704 18.88h630.144c11.52 0 21.632-7.744 24.704-18.88l71.104-260.672c3.072 0 5.888-0.64 8.896-1.024 2.816-0.32 5.696-0.384 8.384-0.96 3.2-0.64 6.208-1.856 9.28-2.88 2.432-0.832 4.992-1.408 7.36-2.368 3.136-1.344 5.952-3.136 8.896-4.8 2.048-1.152 4.288-2.112 6.208-3.456 2.88-1.984 5.504-4.416 8.128-6.72 1.664-1.408 3.52-2.688 5.056-4.224 2.56-2.624 4.736-5.568 6.976-8.448zM921.6 400a38.4 38.4 0 0 1 0 76.8 37.824 37.824 0 0 1-10.56-1.728h-0.384a38.528 38.528 0 0 1-24.704-22.656c-0.064-0.192 0-0.448-0.128-0.64a37.312 37.312 0 0 1-2.624-13.376c0-21.184 17.28-38.4 38.4-38.4zM512 158.144a38.4 38.4 0 0 1 37.056 47.936l-0.64 1.984a35.968 35.968 0 0 1-3.584 8l-0.256 0.448a39.232 39.232 0 0 1-15.36 14.016c-0.192 0.064-0.256 0.256-0.448 0.384-5.056 2.496-10.752 4.032-16.768 4.032s-11.712-1.536-16.768-4.032l-0.448-0.384a39.232 39.232 0 0 1-15.36-14.016l-0.192-0.384a37.76 37.76 0 0 1-3.584-8.064l-0.64-1.984a38.4 38.4 0 0 1 37.056-47.936zM102.4 400a38.4 38.4 0 0 1 38.4 38.4 37.952 37.952 0 0 1-2.56 13.312l-0.064 0.512a38.08 38.08 0 0 1-24.768 22.784h-0.448a37.44 37.44 0 0 1-10.496 1.728 38.4 38.4 0 0 1 0-76.8z m705.152 356.352H216.512L150.4 513.792c8.704-5.568 16.256-12.672 22.528-20.8l156.8 66.496a25.6 25.6 0 0 0 32.832-11.968l133.504-263.04c5.184 0.96 10.496 1.6 16 1.6s10.752-0.64 16-1.6l133.568 263.04a25.6 25.6 0 0 0 32.832 11.968L851.2 492.992c6.336 8.128 13.824 15.232 22.528 20.8l-66.176 242.56z" p-id="3502"></path></svg>