<?xml version="1.0" standalone="no"?><!DOCTYPE svg PUBLIC "-//W3C//DTD SVG 1.1//EN" "http://www.w3.org/Graphics/SVG/1.1/DTD/svg11.dtd"><svg viewBox="0 0 1024 1024" version="1.1" xmlns="http://www.w3.org/2000/svg"><path d="M448 469.333333H149.333333c-12.8 0-21.333333-8.533333-21.333333-21.333333V149.333333c0-12.8 8.533333-21.333333 21.333333-21.333333h298.666667c12.8 0 21.333333 8.533333 21.333333 21.333333v298.666667c0 12.8-8.533333 21.333333-21.333333 21.333333zM170.666667 426.666667h256V170.666667H170.666667v256zM448 896H149.333333c-12.8 0-21.333333-8.533333-21.333333-21.333333V576c0-12.8 8.533333-21.333333 21.333333-21.333333h298.666667c12.8 0 21.333333 8.533333 21.333333 21.333333v298.666667c0 12.8-8.533333 21.333333-21.333333 21.333333zM170.666667 853.333333h256V597.333333H170.666667v256zM874.666667 469.333333H576c-12.8 0-21.333333-8.533333-21.333333-21.333333V149.333333c0-12.8 8.533333-21.333333 21.333333-21.333333h298.666667c12.8 0 21.333333 8.533333 21.333333 21.333333v298.666667c0 12.8-8.533333 21.333333-21.333333 21.333333z m-277.333334-42.666666h256V170.666667H597.333333v256zM874.666667 896H576c-12.8 0-21.333333-8.533333-21.333333-21.333333V576c0-12.8 8.533333-21.333333 21.333333-21.333333h298.666667c12.8 0 21.333333 8.533333 21.333333 21.333333v298.666667c0 12.8-8.533333 21.333333-21.333333 21.333333z m-277.333334-42.666667h256V597.333333H597.333333v256z" /></svg>